<svg width="91" height="91" viewBox="0 0 91 91" fill="none" xmlns="http://www.w3.org/2000/svg">
<g clip-path="url(#clip0_29_40)">
<path d="M87.459 42.3467H84.6465V31.0967C84.6465 29.6048 84.0539 28.1741 82.999 27.1192C81.9441 26.0643 80.5133 25.4717 79.0215 25.4717H73.3965V22.6592C73.3965 21.1673 72.8039 19.7366 71.749 18.6817C70.6941 17.6268 69.2633 17.0342 67.7715 17.0342H59.334C57.8421 17.0342 56.4114 17.6268 55.3565 18.6817C54.3016 19.7366 53.709 21.1673 53.709 22.6592V42.3467H36.834V22.6592C36.834 21.1673 36.2414 19.7366 35.1865 18.6817C34.1316 17.6268 32.7008 17.0342 31.209 17.0342H22.7715C21.2796 17.0342 19.8489 17.6268 18.794 18.6817C17.7391 19.7366 17.1465 21.1673 17.1465 22.6592V25.4717H11.5215C10.0296 25.4717 8.5989 26.0643 7.54401 27.1192C6.48912 28.1741 5.89648 29.6048 5.89648 31.0967V42.3467H3.08398C2.33806 42.3467 1.62269 42.643 1.09525 43.1704C0.567801 43.6979 0.271484 44.4133 0.271484 45.1592C0.271484 45.9051 0.567801 46.6205 1.09525 47.1479C1.62269 47.6754 2.33806 47.9717 3.08398 47.9717H5.89648V59.2217C5.89648 60.7135 6.48912 62.1443 7.54401 63.1992C8.5989 64.254 10.0296 64.8467 11.5215 64.8467H17.1465V67.6592C17.1465 69.151 17.7391 70.5818 18.794 71.6367C19.8489 72.6915 21.2796 73.2842 22.7715 73.2842H31.209C32.7008 73.2842 34.1316 72.6915 35.1865 71.6367C36.2414 70.5818 36.834 69.151 36.834 67.6592V47.9717H53.709V67.6592C53.709 69.151 54.3016 70.5818 55.3565 71.6367C56.4114 72.6915 57.8421 73.2842 59.334 73.2842H67.7715C69.2633 73.2842 70.6941 72.6915 71.749 71.6367C72.8039 70.5818 73.3965 69.151 73.3965 67.6592V64.8467H79.0215C80.5133 64.8467 81.9441 64.254 82.999 63.1992C84.0539 62.1443 84.6465 60.7135 84.6465 59.2217V47.9717H87.459C88.2049 47.9717 88.9203 47.6754 89.4477 47.1479C89.9752 46.6205 90.2715 45.9051 90.2715 45.1592C90.2715 44.4133 89.9752 43.6979 89.4477 43.1704C88.9203 42.643 88.2049 42.3467 87.459 42.3467ZM11.5215 59.2217V31.0967H17.1465V59.2217H11.5215ZM31.209 67.6592H22.7715V22.6592H31.209V67.6592ZM67.7715 67.6592H59.334V22.6592H67.7715V61.9709C67.7715 61.992 67.7715 62.0131 67.7715 62.0342C67.7715 62.0553 67.7715 62.0764 67.7715 62.0975V67.6592ZM79.0215 59.2217H73.3965V31.0967H79.0215V59.2217Z" fill="#22C676"/>
</g>
<defs>
<clipPath id="clip0_29_40">
<rect width="90" height="90" fill="white" transform="translate(0.271484 0.15918)"/>
</clipPath>
</defs>
</svg>
